<?xml version="1.0" encoding="UTF-8"?>
<svg version="1.1" xmlns="http://www.w3.org/2000/svg" width="410" height="408">
<path d="M0 0 C13.05357352 10.1821174 22.22972438 24.28405604 24.6796875 40.88671875 C26.50845651 59.87585445 22.76738542 75.84816066 11.08984375 91.09765625 C0.10153655 104.25032699 -14.12283885 112.20768475 -31.03515625 114.84765625 C-31.81761719 114.97140625 -32.60007812 115.09515625 -33.40625 115.22265625 C-35.27517559 115.4891697 -37.15507649 115.67673991 -39.03515625 115.84765625 C-39.36515625 115.51765625 -39.69515625 115.18765625 -40.03515625 114.84765625 C-41.84481454 114.68666523 -43.65844583 114.56972229 -45.47265625 114.47265625 C-51.3519581 114.03223292 -56.4849051 112.76699444 -62.03515625 110.84765625 C-63.16953125 110.49703125 -64.30390625 110.14640625 -65.47265625 109.78515625 C-68.03515625 108.84765625 -68.03515625 108.84765625 -71.03515625 106.84765625 C-71.03515625 106.18765625 -71.03515625 105.52765625 -71.03515625 104.84765625 C-72.02515625 104.56921875 -72.02515625 104.56921875 -73.03515625 104.28515625 C-76.70713304 102.52566737 -79.28466657 100.1478198 -82.265625 97.40625 C-83.96330131 95.77708909 -83.96330131 95.77708909 -86.03515625 94.84765625 C-86.03515625 94.18765625 -86.03515625 93.52765625 -86.03515625 92.84765625 C-86.69515625 92.84765625 -87.35515625 92.84765625 -88.03515625 92.84765625 C-98.69491053 74.69418582 -105.74149528 58.24299076 -101.03515625 36.84765625 C-96.32965537 19.3752925 -85.89906935 4.5120589 -70.16015625 -4.65234375 C-47.27908994 -17.02479099 -21.09631757 -14.96019432 0 0 Z " fill="#407630" transform="translate(243.03515625,151.15234375)"/>
<path d="M0 0 C13.39275141 10.32584763 21.78916864 24.06548766 24 41 C24.99370436 56.2059877 21.83105957 71.06860086 11.8671875 82.9140625 C11.25101562 83.60242188 10.63484375 84.29078125 10 85 C9.40445313 85.68835938 8.80890625 86.37671875 8.1953125 87.0859375 C-1.99220859 98.11889603 -17.16438398 104.83939532 -32.16235352 105.54077148 C-44.8596661 105.67700546 -55.29555041 101.47574967 -66 95 C-67.0725 94.38125 -68.145 93.7625 -69.25 93.125 C-73.07393239 90.17014315 -75.99546506 86.76873187 -79 83 C-79.61359375 82.24589844 -80.2271875 81.49179688 -80.859375 80.71484375 C-85.77060212 74.2609876 -88.12440298 67.84764725 -90 60 C-90.37318359 58.51306641 -90.37318359 58.51306641 -90.75390625 56.99609375 C-93.95945839 41.85540406 -89.22726844 26.73609896 -81 14 C-61.44456132 -11.66183046 -26.96085793 -18.16927382 0 0 Z " fill="#76BF46" transform="translate(384,155)"/>
<path d="M0 0 C13.18783255 9.18791937 22.52443046 21.73690908 25.68359375 37.62109375 C28.02642117 54.55994333 25.05506102 69.5515871 15.3125 83.5625 C5.73685363 96.14507831 -7.39421827 103.78599281 -22.875 106.8125 C-36.64559885 108.65141062 -49.60061071 104.91722271 -61.875 98.8125 C-61.875 98.1525 -61.875 97.4925 -61.875 96.8125 C-62.45894531 96.52890625 -63.04289062 96.2453125 -63.64453125 95.953125 C-74.86245088 90.21646558 -82.01932889 78.99297432 -86.1640625 67.28125 C-90.52538541 52.13643639 -89.68674739 37.08058469 -82.875 22.8125 C-80.76120637 19.28005292 -78.44404604 16.02524437 -75.875 12.8125 C-75.25753906 11.98878906 -74.64007813 11.16507813 -74.00390625 10.31640625 C-55.69780108 -11.21426056 -23.43111795 -13.86806701 0 0 Z " fill="#75BF46" transform="translate(89.875,153.1875)"/>
<path d="M0 0 C0.72963959 0.00141495 1.45927917 0.0028299 2.21102905 0.00428772 C4.54437335 0.00989094 6.87762214 0.0224439 9.2109375 0.03515625 C10.79166528 0.04017084 12.37239457 0.04473382 13.953125 0.04882812 C17.83076604 0.05986141 21.70833557 0.07712814 25.5859375 0.09765625 C25.5859375 0.75765625 25.5859375 1.41765625 25.5859375 2.09765625 C26.30523437 2.21238281 27.02453125 2.32710938 27.765625 2.4453125 C39.54875964 5.17077439 49.87062809 14.6245453 56.4609375 24.41015625 C65.16238904 39.11477268 68.00876155 54.67864056 64.0234375 71.28515625 C60.18100908 85.74596442 50.93692241 97.82251007 38.4609375 106.09765625 C37.18555452 106.7949693 35.89328301 107.46228633 34.5859375 108.09765625 C33.90015625 108.46246094 33.214375 108.82726562 32.5078125 109.203125 C19.42366126 115.36691733 2.9657132 115.38756059 -10.59375 111.08984375 C-24.28180959 105.83056386 -37.8591523 95.54164853 -44.4140625 82.09765625 C-44.4140625 80.77765625 -44.4140625 79.45765625 -44.4140625 78.09765625 C-45.0740625 77.76765625 -45.7340625 77.43765625 -46.4140625 77.09765625 C-52.36514422 62.24725049 -50.06852019 46.29482885 -44.5390625 31.8046875 C-37.49215007 16.04351282 -24.2910574 8.0765669 -9.4140625 1.09765625 C-6.40193221 -0.4084089 -3.30123628 -0.02394706 0 0 Z " fill="#76BF47" transform="translate(196.4140625,-0.09765625)"/>
<path d="M0 0 C10.63492452 8.98885122 18.05721109 21.99989683 20.13671875 35.86328125 C21.35927365 53.62039008 17.61728851 68.36753307 5.82421875 82.05078125 C-5.83334658 94.44665906 -19.06375917 100.01136543 -35.86328125 101.86328125 C-43.62352025 101.99824193 -50.73683979 100.94335341 -57.86328125 97.86328125 C-58.80945313 97.46238281 -59.755625 97.06148438 -60.73046875 96.6484375 C-68.30182479 93.17100807 -74.03086293 88.77931847 -79.86328125 82.86328125 C-80.43820313 82.29867187 -81.013125 81.7340625 -81.60546875 81.15234375 C-91.76660477 70.35942725 -95.38761894 55.65496976 -95.28515625 41.2253418 C-94.74741706 25.4416353 -87.16553741 11.59583019 -75.86328125 0.86328125 C-53.14947503 -18.50686821 -23.17342787 -17.29313103 0 0 Z " fill="#76BF47" transform="translate(241.86328125,304.13671875)"/>
<path d="M0 0 C9.36573048 8.60890377 15.48918012 20.16247818 16.05078125 32.9375 C16.43261736 49.4785717 13.22366822 63.16013944 1.5625 75.5 C-10.07981386 86.5019866 -23.40569806 90.42796349 -39.14453125 90.0859375 C-43.34011293 89.85868107 -47.14304748 88.86748954 -51.1875 87.75 C-52.85144675 87.40334443 -54.51693851 87.06323028 -56.1875 86.75 C-56.1875 86.09 -56.1875 85.43 -56.1875 84.75 C-57.198125 84.54375 -58.20875 84.3375 -59.25 84.125 C-63.84988112 82.82807612 -66.82049155 80.02533248 -70.1875 76.75 C-70.69152344 76.26144531 -71.19554687 75.77289063 -71.71484375 75.26953125 C-82.21958922 64.43041722 -86.47746051 51.63169464 -86.50439453 36.8359375 C-86.2842687 23.3131457 -81.18846719 11.78938327 -71.9375 2 C-51.34093096 -17.625687 -21.65688898 -17.69271855 0 0 Z " fill="#D9E155" transform="translate(369.1875,34.25)"/>
<path d="M0 0 C0.74507813 0.433125 1.49015625 0.86625 2.2578125 1.3125 C14.79395498 9.13165327 21.41397801 19.70765117 26.203125 33.453125 C29.2678619 47.09420884 27.00061954 60.24397833 20.125 72.3125 C19.10545797 73.8895256 18.06525607 75.45348611 17 77 C16.59523438 77.61359375 16.19046875 78.2271875 15.7734375 78.859375 C8.61428313 88.43419496 -4.46439435 95.00700635 -16 97 C-32.47920443 98.56239962 -46.33079181 94.2176264 -59.1875 83.75 C-70.38354645 73.4360663 -74.80936895 60.47510167 -75.9296875 45.6328125 C-76.45965227 32.24980732 -70.97470655 19.70298917 -62.0546875 9.8515625 C-45.77093449 -5.24552025 -20.01110966 -11.83536447 0 0 Z " fill="#D9E155" transform="translate(99,27)"/>
<path d="M0 0 C10.32257051 9.78014244 15.71368501 21.49876903 16.15966797 35.56347656 C16.33095986 50.1743742 12.85806459 62.89054407 2.5625 73.75 C-1.91176843 77.96773365 -6.75803742 81.08897432 -12.1875 83.9375 C-13.11175781 84.44925781 -14.03601563 84.96101563 -14.98828125 85.48828125 C-26.10119011 90.52233398 -39.66849077 91.31735224 -51.14990234 87.24072266 C-55.24740875 85.64950616 -59.22915301 83.85050052 -63.1875 81.9375 C-63.1875 81.2775 -63.1875 80.6175 -63.1875 79.9375 C-63.744375 79.710625 -64.30125 79.48375 -64.875 79.25 C-67.84605185 77.56372733 -69.83272125 75.407146 -72.1875 72.9375 C-73.3940625 71.885625 -73.3940625 71.885625 -74.625 70.8125 C-83.95548744 60.34414824 -86.99534873 47.88755247 -86.53515625 34.1953125 C-85.6746999 20.43417911 -79.03833458 8.74317946 -69.23046875 -0.6640625 C-48.12201487 -17.30153449 -20.80285204 -17.3092433 0 0 Z " fill="#D9E157" transform="translate(369.1875,294.0625)"/>
<path d="M0 0 C8.46049812 6.20059879 13.44836992 13.85639344 17.58984375 23.40234375 C18.07324219 24.50449219 18.07324219 24.50449219 18.56640625 25.62890625 C22.73650521 36.97001651 22.03916894 50.52922974 17.1328125 61.44140625 C9.87171919 75.3753524 0.7124134 85.11825119 -14.41015625 90.40234375 C-28.6491411 94.61595294 -42.2509759 93.98840532 -55.53515625 86.96484375 C-56.8536992 86.15277974 -58.14244209 85.29167174 -59.41015625 84.40234375 C-59.94261963 84.05953369 -60.47508301 83.71672363 -61.02368164 83.36352539 C-65.51157175 80.37058664 -68.55769029 77.14840661 -71.59765625 72.71484375 C-72.24045532 71.79554077 -72.24045532 71.79554077 -72.89624023 70.85766602 C-79.23094957 61.545923 -81.58845192 52.73629146 -81.59765625 41.58984375 C-81.60990234 40.82091797 -81.62214844 40.05199219 -81.63476562 39.25976562 C-81.66832543 26.00364307 -76.17250051 14.2274323 -67.00390625 4.72265625 C-47.78361683 -12.47139784 -21.43918935 -14.21171547 0 0 Z " fill="#D9E156" transform="translate(105.41015625,290.59765625)"/>
<path d="M0 0 C-2 1 -2 1 -4.57421875 0.29296875 C-5.60160156 -0.07183594 -6.62898438 -0.43664062 -7.6875 -0.8125 C-15.05756508 -3.40653815 -21.49075509 -5.35428993 -29.3125 -5.25 C-30.43615967 -5.23767334 -30.43615967 -5.23767334 -31.58251953 -5.22509766 C-48.24616512 -4.88987831 -58.3985852 1.56692237 -69.98657227 13.25610352 C-77.97775702 21.69652636 -84.05396845 31.00101421 -84 43 C-84.04599511 44.33731641 -84.09441434 45.67455046 -84.14453125 47.01171875 C-84.5022369 59.30107569 -82.0217176 67.52648918 -76.24975586 78.30541992 C-75.44230908 79.84138689 -74.71410188 81.41847436 -74 83 C-74.495 83.99 -74.495 83.99 -75 85 C-85.16228431 71.79950698 -88.35740688 56.32586914 -87 40 C-84.11149079 24.71565984 -75.73911813 11.55465988 -63.3125 2.25 C-44.19693415 -10.37405132 -19.68306638 -12.57529241 0 0 Z " fill="#B6D5A2" transform="translate(234,299)"/>
<path d="M0 0 C8.54009966 7.8499906 15.29556844 18.99000616 15.92089844 30.79663086 C15.98320026 33.21950781 15.99811389 35.63884821 16 38.0625 C16.01224609 38.87912109 16.02449219 39.69574219 16.03710938 40.53710938 C16.05003496 45.94431365 15.32459673 50.55627644 13.8125 55.75 C13.4825 55.75 13.1525 55.75 12.8125 55.75 C13.1425 46.51 13.4725 37.27 13.8125 27.75 C13.1525 27.75 12.4925 27.75 11.8125 27.75 C11.64234375 26.96496094 11.4721875 26.17992187 11.296875 25.37109375 C9.85552782 19.12270038 8.28857568 14.13231073 4.8125 8.75 C4.3175 7.6053125 4.3175 7.6053125 3.8125 6.4375 C2.4993625 4.22158046 1.11381013 3.88025338 -1.1875 2.75 C-2.62707908 1.78327536 -4.04408816 0.78215692 -5.4375 -0.25 C-6.14390625 -0.765625 -6.8503125 -1.28125 -7.578125 -1.8125 C-8.10921875 -2.286875 -8.6403125 -2.76125 -9.1875 -3.25 C-9.1875 -3.91 -9.1875 -4.57 -9.1875 -5.25 C-18.93857893 -8.18186803 -28.16833991 -9.65491429 -38.375 -9.6875 C-39.35412354 -9.69716797 -40.33324707 -9.70683594 -41.34204102 -9.71679688 C-46.84998005 -9.65208157 -50.28473178 -8.93573494 -55.1875 -6.25 C-57.5625 -6.5625 -57.5625 -6.5625 -59.1875 -7.25 C-39.24853459 -17.62229009 -17.05719681 -13.93497389 0 0 Z " fill="#E5E6C5" transform="translate(369.1875,34.25)"/>
<path d="M0 0 C3.96629076 7.11360677 2.84937852 17.67589119 1.3125 25.5 C-0.79309042 32.23788933 -4.00527511 38.20055168 -8 44 C-8.40476563 44.61359375 -8.80953125 45.2271875 -9.2265625 45.859375 C-16.38571687 55.43419496 -29.46439435 62.00700635 -41 64 C-51.4053617 64.98653629 -60.20007998 63.75887343 -70 60 C-67.12405928 58.84962371 -65.87923039 59.03508141 -62.83984375 59.91796875 C-58.29112697 61.19975364 -54.25749871 61.33114575 -49.5625 61.3125 C-48.35110352 61.33666992 -48.35110352 61.33666992 -47.11523438 61.36132812 C-40.62212267 61.36656029 -35.9902686 59.77557889 -30.06542969 57.13916016 C-27.17672724 55.86756025 -25.2001579 55 -22 55 C-22 54.34 -22 53.68 -22 53 C-21.41089844 52.74605469 -20.82179687 52.49210937 -20.21484375 52.23046875 C-16.28746996 50.04859442 -13.80262532 46.44502483 -11 43 C-10.51917969 42.42894531 -10.03835937 41.85789063 -9.54296875 41.26953125 C-5.86832558 36.59574039 -4.46643074 31.69619341 -3 26 C-2.65582031 24.94683594 -2.31164062 23.89367187 -1.95703125 22.80859375 C-0.79661903 18.19062674 -0.54808607 13.80433718 -0.375 9.0625 C-0.33632812 8.18787109 -0.29765625 7.31324219 -0.2578125 6.41210938 C-0.1643893 4.27505369 -0.08114602 2.13755706 0 0 Z " fill="#E3E5B9" transform="translate(124,60)"/>
<path d="M0 0 C-0.58048968 3.24143331 -1.49633853 4.86648792 -3.8359375 7.1640625 C-4.40570313 7.72867187 -4.97546875 8.29328125 -5.5625 8.875 C-6.160625 9.4525 -6.75875 10.03 -7.375 10.625 C-8.26058594 11.50285156 -8.26058594 11.50285156 -9.1640625 12.3984375 C-11.70419445 14.89280131 -14.021901 17.01460067 -17 19 C-18.19275268 21.68369353 -19.13050683 24.20870399 -20 27 C-20.28230469 27.86882813 -20.56460938 28.73765625 -20.85546875 29.6328125 C-24.97205763 43.81861642 -24.28146292 59.58051102 -18 73 C-18 73.66 -18 74.32 -18 75 C-17.34 75 -16.68 75 -16 75 C-14.7734375 76.6875 -14.7734375 76.6875 -13.375 79 C-10.17086402 84.00447971 -6.33327297 87.96367721 -2 92 C-5 92 -5 92 -7.26953125 90.12890625 C-21 76.2718894 -21 76.2718894 -21 69 C-21.66 68.67 -22.32 68.34 -23 68 C-28.95108172 53.14959424 -26.65445769 37.1971726 -21.125 22.70703125 C-18.07803352 15.89216425 -8.27908836 0 0 0 Z " fill="#BCD7A9" transform="translate(173,9)"/>
<path d="M0 0 C0.66 0.33 1.32 0.66 2 1 C0 4 0 4 -2.1875 5.25 C-8.11311475 8.93704918 -12.24744713 13.57737663 -15 20 C-15.31582031 20.57105469 -15.63164062 21.14210937 -15.95703125 21.73046875 C-23.06428104 34.64064159 -23.85468209 50.25684148 -21.37890625 64.59765625 C-19.38313523 71.33005715 -15.77273008 76.82399676 -11.70703125 82.50390625 C-10 85 -10 85 -9 88 C-9.66 88 -10.32 88 -11 88 C-12.56396197 85.90465327 -13.98382757 83.83176529 -15.375 81.625 C-15.77984619 80.98449707 -16.18469238 80.34399414 -16.60180664 79.68408203 C-24.97429513 66.15733854 -27.65034244 51.72510871 -25 36 C-22.70518757 26.78266212 -18.86502758 19.41294042 -13 12 C-12.38125 11.113125 -11.7625 10.22625 -11.125 9.3125 C-7.81931863 5.71514086 -3.9156171 2.90324601 0 0 Z " fill="#B8D6A6" transform="translate(27,154)"/>
<path d="M0 0 C0.6875 1.6875 0.6875 1.6875 1 4 C0 5.66666667 -1 7.33333333 -2 9 C-4.27764076 15.97398179 -4.33453783 23.04442492 -4.3125 30.3125 C-4.32861328 31.36373047 -4.34472656 32.41496094 -4.36132812 33.49804688 C-4.36726742 43.16128701 -2.27430697 51.93268839 1 61 C1.66 61 2.32 61 3 61 C3.28875 61.804375 3.5775 62.60875 3.875 63.4375 C4.73262568 66.1326468 4.73262568 66.1326468 7 67 C7.28875 67.99 7.5775 68.98 7.875 70 C8.24625 70.99 8.6175 71.98 9 73 C11.03243548 73.96877057 11.03243548 73.96877057 13 74 C13.33 75.32 13.66 76.64 14 78 C12 77 10 76 8 75 C8 74.34 8 73.68 8 73 C7.34 73 6.68 73 6 73 C-4.61252359 54.92696303 -11.84071097 38.31983719 -7 17 C-5.35177943 11.05724122 -3.43460825 5.15191238 0 0 Z " fill="#658F59" transform="translate(149,171)"/>
<path d="M0 0 C9.24135522 7.32441776 18.72754047 16.82780902 20.5234375 29 C19.0234375 27.625 19.0234375 27.625 17.5234375 26 C17.5234375 25.34 17.5234375 24.68 17.5234375 24 C16.8634375 24 16.2034375 24 15.5234375 24 C14.99556641 22.80503906 14.99556641 22.80503906 14.45703125 21.5859375 C11.27856169 14.76426132 8.49865659 10.54116651 2.5234375 6 C2.5234375 5.34 2.5234375 4.68 2.5234375 4 C-0.49627038 2.43370292 -3.56306664 1.12374836 -6.7265625 -0.125 C-7.61859375 -0.47820312 -8.510625 -0.83140625 -9.4296875 -1.1953125 C-10.10515625 -1.46085938 -10.780625 -1.72640625 -11.4765625 -2 C-11.4765625 -2.66 -11.4765625 -3.32 -11.4765625 -4 C-22.02856566 -7.41009858 -32.47492324 -7.68473563 -43.4765625 -8 C-43.4765625 -7.34 -43.4765625 -6.68 -43.4765625 -6 C-44.58064453 -5.83564453 -44.58064453 -5.83564453 -45.70703125 -5.66796875 C-51.02567612 -4.80377678 -54.89168286 -3.91765068 -59.4765625 -1 C-61.60546875 -1.41796875 -61.60546875 -1.41796875 -63.4765625 -2 C-43.01092262 -13.23168523 -19.61207338 -13.66366674 0 0 Z " fill="#C9DCBC" transform="translate(92.4765625,155)"/>
<path d="M0 0 C0 3.57161408 -1.01247251 5.67164381 -2.4375 8.9375 C-7.90059099 21.49793997 -7.93010501 37.15633589 -3 50 C-1.28834023 53.27611403 -1.28834023 53.27611403 1 56 C1.4434375 56.63421875 1.886875 57.2684375 2.34375 57.921875 C7.51419219 65.23750065 12.78045772 69.89482095 21.1796875 73.140625 C23 74 23 74 24 76 C25.88263881 76.90343684 25.88263881 76.90343684 28.0625 77.625 C28.79597656 77.88539062 29.52945313 78.14578125 30.28515625 78.4140625 C30.85105469 78.60742188 31.41695313 78.80078125 32 79 C27.84228506 80.31538327 25.1120703 79.34433068 21 78 C21 77.34 21 76.68 21 76 C19.989375 75.79375 18.97875 75.5875 17.9375 75.375 C13.33761888 74.07807612 10.36700845 71.27533248 7 68 C6.49597656 67.51144531 5.99195313 67.02289063 5.47265625 66.51953125 C-5.77507263 54.91378447 -9.5265369 41.39090876 -9.28125 25.6640625 C-8.88741156 15.99532876 -5.52648515 7.82918729 0 0 Z " fill="#E3E5BE" transform="translate(292,43)"/>
<path d="M0 0 C7.61892361 5.87421075 13.61611481 12.38185028 18 21 C18 21.66 18 22.32 18 23 C17.34 23 16.68 23 16 23 C14.59731078 21.30508386 13.27609654 19.542165 12 17.75 C11.29875 16.77546875 10.5975 15.8009375 9.875 14.796875 C8 12 8 12 6.8828125 9.71875 C5.71131628 7.4379609 4.32956537 6.93182615 2 6 C2 5.34 2 4.68 2 4 C1.01 3.67 0.02 3.34 -1 3 C-1 2.34 -1 1.68 -1 1 C-1.70253906 0.72285156 -2.40507812 0.44570312 -3.12890625 0.16015625 C-5.06291811 -0.62134242 -6.98747082 -1.42661929 -8.90234375 -2.25390625 C-10.40474609 -2.90166016 -10.40474609 -2.90166016 -11.9375 -3.5625 C-12.93652344 -3.99691406 -13.93554688 -4.43132812 -14.96484375 -4.87890625 C-20.8383096 -7.04838463 -26.56547343 -7.19398409 -32.75 -7.1875 C-33.5455127 -7.18669434 -34.34102539 -7.18588867 -35.16064453 -7.18505859 C-44.93081702 -7.09683985 -44.93081702 -7.09683985 -54.0078125 -3.8671875 C-56.4409801 -2.80804396 -57.5488342 -3.12458364 -60 -4 C-58.67083439 -4.63381508 -57.33635391 -5.25648484 -56 -5.875 C-55.2575 -6.22304687 -54.515 -6.57109375 -53.75 -6.9296875 C-35.87254357 -13.88767481 -15.72013393 -10.5940033 0 0 Z " fill="#C3DAB4" transform="translate(384,155)"/>
<path d="M0 0 C0.74507812 0.433125 1.49015625 0.86625 2.2578125 1.3125 C9.25153249 5.67468467 16.42066022 11.39390296 20 19 C20 19.66 20 20.32 20 21 C19.34 21 18.68 21 18 21 C16.9921875 19.49609375 16.9921875 19.49609375 15.875 17.4375 C12.97751035 12.62817701 9.42373412 9.40095348 5 6 C4.41734375 5.52433594 3.8346875 5.04867187 3.234375 4.55859375 C-5.85333239 -2.05962794 -17.85811691 -2.25259862 -28.6875 -2.3125 C-29.54891602 -2.31805908 -30.41033203 -2.32361816 -31.29785156 -2.3293457 C-35.56713198 -2.27985048 -38.1753264 -1.95290831 -42 0 C-44.25 -0.375 -44.25 -0.375 -46 -1 C-32.42681285 -8.1097647 -13.26434535 -7.84506029 0 0 Z " fill="#E1E4A4" transform="translate(99,27)"/>
<path d="M0 0 C0 0.66 0 1.32 0 2 C0.70640625 2.10441406 1.4128125 2.20882813 2.140625 2.31640625 C5.37063695 3.08860856 7.84667012 4.33282173 10.75 5.9375 C11.71421875 6.46214844 12.6784375 6.98679687 13.671875 7.52734375 C16 9 16 9 17 11 C15.35 10.67 13.7 10.34 12 10 C12 9.34 12 8.68 12 8 C10.00531118 7.31760646 8.00342734 6.65629516 6 6 C5.31357422 5.74879395 4.62714844 5.49758789 3.91992188 5.23876953 C-3.15472694 2.82560741 -9.69548614 2.58063127 -17.125 2.6875 C-18.25292969 2.68427734 -19.38085938 2.68105469 -20.54296875 2.67773438 C-27.99207178 2.72565258 -35.38262951 2.8217534 -41.75 7.1875 C-45 9 -45 9 -47.203125 8.61328125 C-47.79609375 8.41089844 -48.3890625 8.20851563 -49 8 C-34.34744368 -2.95884012 -17.35517719 -0.79386806 0 0 Z " fill="#8DC36C" transform="translate(222,0)"/>
<path d="M0 0 C5.61249558 5.61249558 6.30651951 16.35455322 6.5 23.9375 C6.2882137 39.00353955 1.0078969 51.81470347 -9 63 C-9 59.20222739 -7.78252961 57.82353811 -5.6875 54.6875 C1.3895814 43.83597519 2.18124121 36.30548687 2.1875 23.5 C2.20586914 21.52193359 2.20586914 21.52193359 2.22460938 19.50390625 C2.22654297 18.23417969 2.22847656 16.96445312 2.23046875 15.65625 C2.23663208 13.92084961 2.23663208 13.92084961 2.24291992 12.15039062 C1.99960273 8.99484789 1.21898593 6.88667462 0 4 C0 2.68 0 1.36 0 0 Z " fill="#BBD7A8" transform="translate(256,324)"/>
<path d="M0 0 C0.625 1.8125 0.625 1.8125 1 4 C0.01 5.485 0.01 5.485 -1 7 C-1.66 7 -2.32 7 -3 7 C-3.13277344 7.74765625 -3.26554687 8.4953125 -3.40234375 9.265625 C-3.57894531 10.25046875 -3.75554687 11.2353125 -3.9375 12.25 C-4.11152344 13.22453125 -4.28554688 14.1990625 -4.46484375 15.203125 C-5 18 -5 18 -5.55078125 19.9375 C-7.81001431 30.31032658 -6.63475537 46.52104856 -1.4375 55.78515625 C-0.963125 56.51605469 -0.48875 57.24695313 0 58 C0.6875 60.8125 0.6875 60.8125 1 63 C-6.55258166 54.90794822 -9.21080795 42.8072583 -10 32 C-9.51378652 20.09992516 -6.05061697 10.11624892 0 0 Z " fill="#B9D6A7" transform="translate(302,171)"/>
<path d="M0 0 C0.99 0.33 1.98 0.66 3 1 C-9.01552182 9.8535424 -23.8589987 12.1651661 -38.5 10.375 C-44.34215285 9.34002653 -49.64688029 7.54088171 -55 5 C-51.265625 3.890625 -51.265625 3.890625 -48.875 4.875 C-44.63336406 6.53477058 -40.52523169 6.74530764 -36 7 C-34.30617187 7.09861328 -34.30617187 7.09861328 -32.578125 7.19921875 C-22.51169944 7.50715793 -11.02775568 6.69306158 -2.2265625 1.30078125 C-1.12441406 0.65689453 -1.12441406 0.65689453 0 0 Z " fill="#B2D49C" transform="translate(234,103)"/>
<path d="M0 0 C0.66 0.33 1.32 0.66 2 1 C-4.65027764 14.83525097 -15.33183752 24.82036798 -29.67578125 30.2734375 C-35.12970571 31.97836178 -40.14592073 32.12424814 -45.8125 32.0625 C-46.60076172 32.05798828 -47.38902344 32.05347656 -48.20117188 32.04882812 C-50.13414761 32.03711312 -52.06708393 32.01917998 -54 32 C-54 31.67 -54 31.34 -54 31 C-53.44127197 30.96036133 -52.88254395 30.92072266 -52.30688477 30.87988281 C-49.72384219 30.68686776 -47.14350057 30.4685745 -44.5625 30.25 C-43.68400391 30.188125 -42.80550781 30.12625 -41.90039062 30.0625 C-33.5604972 29.32391165 -26.90968464 26.67076029 -20.125 21.75 C-16.32673267 19 -16.32673267 19 -13 19 C-12.73058594 18.42378906 -12.46117187 17.84757812 -12.18359375 17.25390625 C-10.9793982 14.96076819 -9.62488595 13.00080358 -8.0625 10.9375 C-7.55847656 10.26589844 -7.05445313 9.59429687 -6.53515625 8.90234375 C-5 7 -5 7 -3.3828125 5.390625 C-1.75876965 3.75740677 -0.93681112 2.08980942 0 0 Z " fill="#E1E4B4" transform="translate(380,92)"/>
<path d="M0 0 C0.495 0.99 0.495 0.99 1 2 C-0.35732116 1.593727 -1.71069689 1.1742721 -3.0625 0.75 C-3.81660156 0.51796875 -4.57070313 0.2859375 -5.34765625 0.046875 C-8 -1 -8 -1 -11.06640625 -3.0859375 C-16.0329612 -5.99489093 -21.27799673 -5.50612585 -26.875 -5.375 C-27.91269531 -5.37371094 -28.95039063 -5.37242187 -30.01953125 -5.37109375 C-35.60582388 -5.3076932 -40.68523256 -4.86190781 -46.06689453 -3.32666016 C-48.32119414 -2.94572395 -49.8396638 -3.31242856 -52 -4 C-50.27255984 -4.65043719 -48.5429631 -5.29514844 -46.8125 -5.9375 C-45.84957031 -6.29714844 -44.88664062 -6.65679687 -43.89453125 -7.02734375 C-28.95363612 -12.04796843 -12.86988685 -8.66846038 0 0 Z " fill="#DFE39D" transform="translate(364,290)"/>
<path d="M0 0 C0.85429776 2.4060918 1.14329557 3.60556008 0.2578125 6.04296875 C-0.11601562 6.75066406 -0.48984375 7.45835937 -0.875 8.1875 C-3.0937606 12.92340624 -3.82466806 16.79848568 -4 22 C-4.03867188 22.94552734 -4.03867188 22.94552734 -4.078125 23.91015625 C-4.56099123 37.0199745 -2.43087352 45.76240522 3.75024414 57.30541992 C4.55769092 58.84138689 5.28589812 60.41847436 6 62 C5.67 62.66 5.34 63.32 5 64 C-5.12406265 50.84915574 -8.43927609 35.28866013 -7 19 C-5.58225041 12.18497599 -3.18936974 6.1685518 0 0 Z " fill="#CDDEC4" transform="translate(154,320)"/>
<path d="M0 0 C4.01911905 6.02867858 4.36563604 12.7613475 4.3125 19.8125 C4.30686035 20.60148682 4.3012207 21.39047363 4.29541016 22.20336914 C3.99324749 36.80141605 -1.60315852 48.27619646 -12.046875 58.41796875 C-14 60 -14 60 -16 60 C-14.4411666 56.17377257 -12.04566418 53.74852621 -9 51 C-7.515 50.505 -7.515 50.505 -6 50 C-5.896875 49.31035156 -5.79375 48.62070312 -5.6875 47.91015625 C-4.87702284 44.47944329 -3.52997307 41.61145857 -2 38.4375 C3.06444882 27.90685522 3.23442952 17.46788679 0.4375 6.0859375 C0 4 0 4 0 0 Z " fill="#E3E5C0" transform="translate(381,312)"/>
<path d="M0 0 C6.01043692 9.01565539 6.2977366 20.50627349 5 31 C3.51423142 37.53547081 0.51425612 43.3421507 -3 49 C-3.625 47.125 -3.625 47.125 -4 45 C-3.34 44.34 -2.68 43.68 -2 43 C-1.41992464 41.3319364 -0.90549418 39.64041076 -0.4375 37.9375 C0.90277778 33.09722222 0.90277778 33.09722222 2 32 C2.12879204 29.17556063 2.18974706 26.3876146 2.1875 23.5625 C2.18814453 22.74442871 2.18878906 21.92635742 2.18945312 21.08349609 C2.14399325 15.87317436 1.74492699 11.01159207 0.4375 5.9453125 C0 4 0 4 0 0 Z " fill="#E2E5BE" transform="translate(121,311)"/>
<path d="M0 0 C0.80462234 2.79566206 1.08686326 5.15340202 0.95703125 8.0546875 C0.41807639 25.17275042 3.68958457 39.51450467 15 53 C15 53.66 15 54.32 15 55 C14.34 55 13.68 55 13 55 C11.43603803 52.90465327 10.01617243 50.83176529 8.625 48.625 C8.22015381 47.98449707 7.81530762 47.34399414 7.39819336 46.68408203 C-1.24520786 32.71964705 -2.84375876 19.0723617 -1 3 C-0.67 2.01 -0.34 1.02 0 0 Z " fill="#C6DBB8" transform="translate(3,187)"/>
<path d="M0 0 C0.33 0 0.66 0 1 0 C1.04898438 1.00160156 1.09796875 2.00320312 1.1484375 3.03515625 C1.22354079 4.37762759 1.29908526 5.7200743 1.375 7.0625 C1.44460937 8.37347656 1.51421875 9.68445313 1.5859375 11.03515625 C2.09770798 15.93559996 3.41878692 20.29268656 5 24.9375 C6.19326563 28.591876 7.09804691 32.26333722 8 36 C8.66 36 9.32 36 10 36 C11.2265625 37.6875 11.2265625 37.6875 12.625 40 C15.82913598 45.00447971 19.66672703 48.96367721 24 53 C21 53 21 53 18.73046875 51.12890625 C5 37.2718894 5 37.2718894 5 30 C4.34 29.67 3.68 29.34 3 29 C-0.74668621 19.6504711 -0.31547673 9.86156884 0 0 Z " fill="#CBDDBF" transform="translate(147,48)"/>
<path d="M0 0 C0.57468018 0.0707373 1.14936035 0.14147461 1.74145508 0.21435547 C8.7389974 1.0028695 15.65025426 1.15026839 22.6875 1.125 C23.77611328 1.12886719 24.86472656 1.13273437 25.98632812 1.13671875 C31.43090933 1.1300992 36.63821175 0.9665026 42 0 C36.8663705 5.1336295 28.03285292 5.34323435 21.125 5.4375 C13.55656924 5.42484074 7.08003403 3.71562949 0 1 C0 0.67 0 0.34 0 0 Z " fill="#BFD9B0" transform="translate(329,255)"/>
<path d="M0 0 C2.91275572 1.34385419 5.2170662 2.90211114 7.6875 4.9375 C11.82929185 8.12769373 15.98031934 9.67536205 21 11 C21 11.66 21 12.32 21 13 C34.365 13.495 34.365 13.495 48 14 C48 14.33 48 14.66 48 15 C33.17427954 18.52993344 21.36191556 15.45758229 8 9 C8 8.34 8 7.68 8 7 C7.4225 6.731875 6.845 6.46375 6.25 6.1875 C3.94449957 4.97070811 1.97943808 3.69666121 0 2 C0 1.34 0 0.68 0 0 Z " fill="#E3E6BB" transform="translate(298,367)"/>
<path d="M0 0 C-13.66106048 7.49728482 -27.83646269 10.70643161 -43.1081543 6.56274414 C-45.76205926 5.77331958 -48.38678294 4.91462597 -51 4 C-48.32703509 2.97193657 -47.17752274 2.93731313 -44.43359375 3.90625 C-39.63213886 5.43572368 -35.07618853 5.46685368 -30.0625 5.5 C-28.53737793 5.51075562 -28.53737793 5.51075562 -26.98144531 5.52172852 C-18.9492807 5.39404225 -12.92084013 3.75234361 -5.765625 0.21484375 C-3 -1 -3 -1 0 0 Z " fill="#CDDDC2" transform="translate(88,252)"/>
<path d="M0 0 C0 0.66 0 1.32 0 2 C4.455 2.99 4.455 2.99 9 4 C4.93670587 5.01582353 3.90608167 4.69386169 0.14111328 3.50244141 C-4.34715405 2.44920832 -8.97617018 2.67288454 -13.5625 2.6875 C-14.57763672 2.67138672 -15.59277344 2.65527344 -16.63867188 2.63867188 C-22.35024744 2.63494126 -25.93077217 3.16466918 -31 6 C-33.375 5.6875 -33.375 5.6875 -35 5 C-23.49179846 -0.98658969 -12.7408492 -1.39470834 0 0 Z " fill="#E1E5A1" transform="translate(345,22)"/>
<path d="M0 0 C0.93138794 0.28206299 0.93138794 0.28206299 1.8815918 0.56982422 C-4.78507487 7.23649089 -11.45174154 13.90315755 -18.1184082 20.56982422 C-16.94427799 12.09825176 -10.0656386 6.23429199 -4.01293945 0.68701172 C-2.1184082 -0.43017578 -2.1184082 -0.43017578 0 0 Z " fill="#A2CF85" transform="translate(173.118408203125,301.43017578125)"/>
<path d="M0 0 C1.53105201 4.59315602 -0.5353836 7.56265397 -2.41796875 11.8671875 C-7.34012282 21.6142679 -15.64234308 30.38540585 -25 36 C-25.66 35.67 -26.32 35.34 -27 35 C-24.7873617 32.654743 -22.43968374 30.85995309 -19.8125 29 C-14.36400582 24.83350445 -10.76542589 19.67071334 -7 14 C-6.34 13.01 -5.68 12.02 -5 11 C-4.835 10.13375 -4.67 9.2675 -4.5 8.375 C-4.335 7.59125 -4.17 6.8075 -4 6 C-3.34 5.67 -2.68 5.34 -2 5 C-1.27840576 3.35636866 -0.60648579 1.68949614 0 0 Z " fill="#C6DBB7" transform="translate(405,216)"/>
<path d="M0 0 C5.27599074 7.9139861 3.69183734 20.70623156 2.3125 29.75 C0.8717735 36.62432359 -1.62434491 44.235571 -7 49 C-6.50755486 46.43928526 -5.76039663 44.53121079 -4.5625 42.1875 C-2.92609216 38.84922802 -1.98187082 35.57681511 -1 32 C-0.67 31.67 -0.34 31.34 0 31 C0.08790975 28.70848583 0.10694038 26.41427476 0.09765625 24.12109375 C0.09553383 23.09110008 0.09553383 23.09110008 0.09336853 22.04029846 C0.08775479 19.83932199 0.07520007 17.63844591 0.0625 15.4375 C0.05748676 13.94856917 0.05292355 12.45963676 0.04882812 10.97070312 C0.03778093 7.31376925 0.02050713 3.65689442 0 0 Z " fill="#C2D9B4" transform="translate(113,185)"/>
<path d="M0 0 C2.81316358 0.30727025 5.62542519 0.62055152 8.4375 0.9375 C9.23994141 1.02451172 10.04238281 1.11152344 10.86914062 1.20117188 C16.88671875 1.88671875 16.88671875 1.88671875 18 3 C20.66059535 3.15597628 23.27521272 3.23847008 25.9375 3.25 C26.70860107 3.25394775 27.47970215 3.25789551 28.27416992 3.26196289 C33.56381827 3.20813976 38.06541496 2.53147192 43.01953125 0.55859375 C45.37377431 -0.10542352 46.71246761 0.22378114 49 1 C41.07276906 4.79128436 32.71274784 6.20793201 24 7 C23.67 6.67 23.34 6.34 23 6 C21.19034171 5.83900898 19.37671042 5.72206604 17.5625 5.625 C11.82118812 5.19234133 6.30792569 4.3256949 1 2 C0.67 1.34 0.34 0.68 0 0 Z " fill="#BBCAB7" transform="translate(180,260)"/>
<path d="M0 0 C3 1 3 1 4.38671875 3.65234375 C4.81597656 4.73644531 5.24523437 5.82054687 5.6875 6.9375 C6.12449219 8.01902344 6.56148437 9.10054687 7.01171875 10.21484375 C8 13 8 13 8 15 C8.66 15 9.32 15 10 15 C10.28875 15.804375 10.5775 16.60875 10.875 17.4375 C11.73262568 20.1326468 11.73262568 20.1326468 14 21 C14.28875 21.99 14.5775 22.98 14.875 24 C15.24625 24.99 15.6175 25.98 16 27 C18.03243548 27.96877057 18.03243548 27.96877057 20 28 C20.33 29.32 20.66 30.64 21 32 C19 31 17 30 15 29 C15 28.34 15 27.68 15 27 C14.34 27 13.68 27 13 27 C7.85749306 18.24235463 2.963579 9.78188313 0 0 Z " fill="#A9BDA4" transform="translate(142,217)"/>
<path d="M0 0 C0.66 0.33 1.32 0.66 2 1 C1.38125 1.2475 0.7625 1.495 0.125 1.75 C-2.10480466 2.79370149 -2.10480466 2.79370149 -2.8359375 4.765625 C-6.32923987 11.47088995 -13.50680589 17.24078235 -20 21 C-16.75397712 11.46586998 -8.4544614 4.91677897 0 0 Z " fill="#E1E598" transform="translate(50,287)"/>
<path d="M0 0 C1.70643869 2.55965804 2.6083832 4.39264498 3.5625 7.25 C3.81128906 7.97703125 4.06007813 8.7040625 4.31640625 9.453125 C7.30595919 20.59134508 6.92532952 32.89941922 4 44 C3.67 44 3.34 44 3 44 C3.01047363 43.14768799 3.02094727 42.29537598 3.03173828 41.41723633 C3.06592655 38.23967495 3.09095073 35.06220768 3.10986328 31.88452148 C3.11988926 30.51209417 3.13351356 29.13968805 3.15087891 27.76733398 C3.17527627 25.78899473 3.18544484 23.81049633 3.1953125 21.83203125 C3.20578613 20.64327393 3.21625977 19.4545166 3.22705078 18.22973633 C3.0019255 15.02738966 2.31143708 12.89830122 1 10 C0.5859375 7.32421875 0.5859375 7.32421875 0.375 4.6875 C0.26285156 3.36298828 0.26285156 3.36298828 0.1484375 2.01171875 C0.09945313 1.34785156 0.05046875 0.68398437 0 0 Z " fill="#AFC2A9" transform="translate(262,176)"/>
<path d="M0 0 C3.27604913 4.04631069 5.27876155 8.54301588 7.5 13.22265625 C8.82909519 15.68355906 10.01685948 17.10539254 12 19 C12 19.66 12 20.32 12 21 C12.66 21 13.32 21 14 21 C14 21.66 14 22.32 14 23 C14.66 23 15.32 23 16 23 C16 23.66 16 24.32 16 25 C16.86625 25.2475 17.7325 25.495 18.625 25.75 C22.21060064 27.07800024 24.96327987 28.68630848 28 31 C28 31.66 28 32.32 28 33 C15.49989652 28.30697869 7.88007414 19.71610277 2 8 C1.62488281 7.33484375 1.24976562 6.6696875 0.86328125 5.984375 C0 4 0 4 0 0 Z " fill="#E5E7C5" transform="translate(26,86)"/>
<path d="M0 0 C1.24810476 3.74431429 0.52798165 4.63127491 -0.875 8.25 C-4.15322184 18.18640343 -3.84578438 28.6263406 -4 39 C-4.33 39 -4.66 39 -5 39 C-7.35979839 25.22387969 -8.0897739 12.23957147 0 0 Z " fill="#E1E4AD" transform="translate(30,47)"/>
<path d="M0 0 C0.66 0.33 1.32 0.66 2 1 C-2.82770059 6.55409072 -7.62655286 11.81084452 -13.37109375 16.4296875 C-15.15172571 18.14626795 -16.02731813 19.74181394 -17 22 C-17.66 22 -18.32 22 -19 22 C-15.8875833 12.79379901 -7.31976739 6.02335082 0 0 Z " fill="#88A77F" transform="translate(169,149)"/>
<path d="M0 0 C0.97368493 3.11851536 0.98677733 4.04760161 0.0625 7.375 C-2.69945556 17.78987408 -1.05776468 27.41241956 2.30883789 37.40209961 C4.09032247 42.72903259 4.09032247 42.72903259 3 46 C2.18167278 44.10667466 1.37057732 42.21022267 0.5625 40.3125 C-0.11619141 38.72888672 -0.11619141 38.72888672 -0.80859375 37.11328125 C-2.98928416 31.41488698 -3.18251994 26.21835547 -3.1875 20.1875 C-3.19974609 19.41857422 -3.21199219 18.64964844 -3.22460938 17.85742188 C-3.24077894 11.47044457 -2.02368092 6.07104276 0 0 Z " fill="#E3E5CA" transform="translate(27,312)"/>
<path d="M0 0 C7.625 0.875 7.625 0.875 11 2 C12.45741472 2.09185751 13.9186012 2.13066657 15.37890625 2.1328125 C16.21744141 2.13410156 17.05597656 2.13539062 17.91992188 2.13671875 C18.79197266 2.13285156 19.66402344 2.12898438 20.5625 2.125 C21.43841797 2.12886719 22.31433594 2.13273437 23.21679688 2.13671875 C24.05404297 2.13542969 24.89128906 2.13414063 25.75390625 2.1328125 C26.52033447 2.13168457 27.2867627 2.13055664 28.07641602 2.12939453 C30.08443868 2.11868694 30.08443868 2.11868694 32 1 C34.3329866 0.95977609 36.66706666 0.95679753 39 1 C31.38110325 6.0792645 21.84806525 5.94607198 13 5 C8.52892746 4.10404153 4.25272965 2.63118398 0 1 C0 0.67 0 0.34 0 0 Z " fill="#E4E5C9" transform="translate(54,119)"/>
<path d="M0 0 C7.31121758 1.21853626 14.15446867 7.44441085 18.5 13.1875 C19.35433505 14.44431081 20.19036132 15.71394129 21 17 C21.61875 17.94875 22.2375 18.8975 22.875 19.875 C24 22 24 22 24 24 C20.21266675 22.73755558 19.93634414 21.55458212 18.0625 18.125 C16.06349202 14.46814807 14.36163573 12.42502448 11 10 C11 9.34 11 8.68 11 8 C10.4225 7.9175 9.845 7.835 9.25 7.75 C6.34566813 6.78188938 5.04744828 5.24558843 3 3 C2.4225 2.4225 1.845 1.845 1.25 1.25 C0.8375 0.8375 0.425 0.425 0 0 Z " fill="#E1E5AE" transform="translate(97,287)"/>
<path d="M0 0 C4.26449645 6.39674467 5.46103832 10.81737005 5.3125 18.375 C5.31572266 19.18710938 5.31894531 19.99921875 5.32226562 20.8359375 C5.27501983 26.1961872 4.48566309 30.85049048 3 36 C2.67 36 2.34 36 2 36 C2.33 26.76 2.66 17.52 3 8 C2.34 8 1.68 8 1 8 C0.67 5.36 0.34 2.72 0 0 Z " fill="#E1E4AC" transform="translate(380,54)"/>
<path d="M0 0 C-0.5805321 3.30118794 -1.54868099 4.91134076 -3.94140625 7.234375 C-4.52470703 7.80800781 -5.10800781 8.38164062 -5.70898438 8.97265625 C-6.32064453 9.55917969 -6.93230469 10.14570313 -7.5625 10.75 C-8.17802734 11.35199219 -8.79355469 11.95398438 -9.42773438 12.57421875 C-10.94514813 14.05634381 -12.47170596 15.5290967 -14 17 C-14 12.41761076 -12.83552205 9.88774218 -9.6875 6.54296875 C-8.800625 5.76566406 -7.91375 4.98835937 -7 4.1875 C-5.6696875 3.00220703 -5.6696875 3.00220703 -4.3125 1.79296875 C-2 0 -2 0 0 0 Z " fill="#95CB74" transform="translate(173,9)"/>
<path d="M0 0 C0.97453125 0.00902344 1.9490625 0.01804688 2.953125 0.02734375 C5.34400728 0.05078377 7.73437261 0.08359558 10.125 0.125 C10.125 0.455 10.125 0.785 10.125 1.125 C4.515 1.125 -1.095 1.125 -6.875 1.125 C-6.875 1.785 -6.875 2.445 -6.875 3.125 C-7.61105469 3.23457031 -8.34710938 3.34414062 -9.10546875 3.45703125 C-14.42411362 4.32122322 -18.29012036 5.20734932 -22.875 8.125 C-25.00390625 7.70703125 -25.00390625 7.70703125 -26.875 7.125 C-25.33601439 6.32813394 -23.79366216 5.53776859 -22.25 4.75 C-20.96222656 4.08871094 -20.96222656 4.08871094 -19.6484375 3.4140625 C-12.8732101 0.26501315 -7.3763461 -0.12993564 0 0 Z " fill="#A9D190" transform="translate(55.875,145.875)"/>
<path d="M0 0 C-1.82784602 0.96875839 -3.66260941 1.92446873 -5.5 2.875 C-7.03140625 3.67550781 -7.03140625 3.67550781 -8.59375 4.4921875 C-15.42861405 7.51771218 -21.57169568 8.29236214 -29 8.125 C-30.16208984 8.11146484 -30.16208984 8.11146484 -31.34765625 8.09765625 C-33.23190843 8.07439388 -35.11599832 8.0385364 -37 8 C-37 7.67 -37 7.34 -37 7 C-36.44127197 6.96036133 -35.88254395 6.92072266 -35.30688477 6.87988281 C-32.72384219 6.68686776 -30.14350057 6.4685745 -27.5625 6.25 C-26.24475586 6.1571875 -26.24475586 6.1571875 -24.90039062 6.0625 C-17.72587218 5.42711829 -12.1691207 3.26960328 -5.88500977 -0.15136719 C-3.52298425 -1.21475285 -2.39057024 -0.85377508 0 0 Z " fill="#E5E6D2" transform="translate(363,116)"/>
<path d="M0 0 C9.35059461 1.31207278 16.99222709 9.14220647 23 16 C26 20.3125 26 20.3125 26 23 C25.34 23 24.68 23 24 23 C22.9921875 21.49609375 22.9921875 21.49609375 21.875 19.4375 C16.65446727 10.83272658 8.8134277 6.422915 0 2 C0 1.34 0 0.68 0 0 Z " fill="#E2E5BB" transform="translate(93,25)"/>
<path d="M0 0 C0.66 0.33 1.32 0.66 2 1 C0.0843735 3.08429801 -1.83246061 5.16746303 -3.75 7.25 C-4.28882813 7.83652344 -4.82765625 8.42304687 -5.3828125 9.02734375 C-11.83338878 16.02857898 -11.83338878 16.02857898 -14 18 C-14.66 18 -15.32 18 -16 18 C-13.52019493 10.10971115 -6.01683942 5.28275879 0 0 Z " fill="#E0E4A0" transform="translate(47,29)"/>
<path d="M0 0 C7.24009295 10.86013942 6.87600602 24.57146013 5 37 C4.67 37 4.34 37 4 37 C3.97494385 36.29391602 3.9498877 35.58783203 3.92407227 34.86035156 C3.80792631 31.65672491 3.68528397 28.45337882 3.5625 25.25 C3.52318359 24.13882813 3.48386719 23.02765625 3.44335938 21.8828125 C3.40146484 20.81289062 3.35957031 19.74296875 3.31640625 18.640625 C3.27974854 17.65610352 3.24309082 16.67158203 3.20532227 15.65722656 C3.02211916 13.28626032 2.79283271 11.24001627 2 9 C1.34 8.67 0.68 8.34 0 8 C0 5.36 0 2.72 0 0 Z " fill="#D2E0C9" transform="translate(402,178)"/>
<path d="M0 0 C10.23 0 20.46 0 31 0 C21.76001393 4.61999303 11.84839532 4.68133192 2.09765625 1.7265625 C1.40542969 1.48679687 0.71320312 1.24703125 0 1 C0 0.67 0 0.34 0 0 Z " fill="#E2E4C1" transform="translate(59,380)"/>
<path d="M0 0 C0.83288077 2.36301869 1.16196825 3.56871371 0.26660156 5.95288086 C-0.1049707 6.63745361 -0.47654297 7.32202637 -0.859375 8.02734375 C-3.44563071 13.45692276 -3.87236242 18.6186419 -4.25 24.5625 C-4.32734375 25.57119141 -4.4046875 26.57988281 -4.484375 27.61914062 C-4.67088536 30.07874593 -4.84244732 32.53839952 -5 35 C-5.33 35 -5.66 35 -6 35 C-7.55825474 21.80564737 -6.20930681 12.02607123 0 0 Z " fill="#BCD8AB" transform="translate(154,320)"/>
<path d="M0 0 C0.33 0 0.66 0 1 0 C1 9.24 1 18.48 1 28 C-3.51440351 18.97119299 -1.84799186 9.60650315 0 0 Z " fill="#BAC9B6" transform="translate(142,188)"/>
<path d="M0 0 C0.33 0.66 0.66 1.32 1 2 C-3.87096243 9.5806369 -9.46016666 15.81544935 -16 22 C-16.66 21.67 -17.32 21.34 -18 21 C-17.34 20.360625 -16.68 19.72125 -16 19.0625 C-13.55133057 16.60683437 -11.20171846 14.07141026 -8.875 11.5 C-8.21242187 10.7678125 -7.54984375 10.035625 -6.8671875 9.28125 C-4.9720435 6.96584394 -3.51791819 4.57274269 -2 2 C-1.34 1.34 -0.68 0.68 0 0 Z " fill="#C6DBB6" transform="translate(255,81)"/>
<path d="M0 0 C2.31 0 4.62 0 7 0 C7 0.66 7 1.32 7 2 C8.05960938 2.15662109 8.05960938 2.15662109 9.140625 2.31640625 C12.37063695 3.08860856 14.84667012 4.33282173 17.75 5.9375 C18.71421875 6.46214844 19.6784375 6.98679687 20.671875 7.52734375 C23 9 23 9 24 11 C21.525 10.505 21.525 10.505 19 10 C19 9.34 19 8.68 19 8 C14.72730289 6.55845173 10.43675971 5.19492644 6.125 3.875 C4.97257813 3.52179688 3.82015625 3.16859375 2.6328125 2.8046875 C1.76398438 2.53914062 0.89515625 2.27359375 0 2 C0 1.34 0 0.68 0 0 Z " fill="#C6DBB9" transform="translate(215,0)"/>
<path d="M0 0 C8.30278623 2.28627447 17.0519653 5.60987076 22 13 C17.36503948 12.37365398 17.36503948 12.37365398 15.67578125 10.64453125 C13.5156135 8.52464635 11.185365 7.38599484 8.5 6 C5.18866622 4.2909245 2.47616514 2.81078206 0 0 Z " fill="#A6BC9F" transform="translate(224,142)"/>
<path d="M0 0 C3.49992803 -0.05869332 6.9997272 -0.09382709 10.5 -0.125 C11.48226562 -0.14175781 12.46453125 -0.15851563 13.4765625 -0.17578125 C19.35918665 -0.21499874 24.36364503 0.29567362 30 2 C30 2.33 30 2.66 30 3 C27.85423363 3.02685938 25.70837355 3.04633088 23.5625 3.0625 C22.36753906 3.07410156 21.17257813 3.08570313 19.94140625 3.09765625 C17 3 17 3 16 2 C13.30764224 1.76321284 10.63501844 1.57801975 7.9375 1.4375 C7.17888672 1.39431641 6.42027344 1.35113281 5.63867188 1.30664062 C3.75934562 1.20026367 1.87969756 1.09960066 0 1 C0 0.67 0 0.34 0 0 Z " fill="#ACC1A4" transform="translate(194,139)"/>
<path d="M0 0 C1 2 1 2 0.50390625 3.99609375 C-2.0943236 10.7342417 -6.24379345 20.62189672 -13 24 C-11.74188777 20.58342034 -10.29436275 17.77544947 -8.1875 14.8125 C-4.95798975 10.09916071 -2.43465608 5.16017814 0 0 Z " fill="#C9DDBD" transform="translate(259,363)"/>
<path d="M0 0 C4.56283954 1.35651986 5.69091874 2.95910779 8 7 C9.61736259 8.3927289 11.2925002 9.71937515 13 11 C14.27740838 12.07557255 15.5480355 13.15923971 16.8125 14.25 C17.41707031 14.77078125 18.02164062 15.2915625 18.64453125 15.828125 C19.09183594 16.21484375 19.53914063 16.6015625 20 17 C19.34 17.33 18.68 17.66 18 18 C10.36017836 13.42650133 3.79605052 8.25228373 0 0 Z " fill="#B8D5A5" transform="translate(303,234)"/>
<path d="M0 0 C1.40814089 2.81628177 0.51427499 4.13083558 -0.375 7.125 C-2.39439765 14.70465693 -2.71301472 22.20191724 -3 30 C-3.33 30 -3.66 30 -4 30 C-4.42156863 7.18845316 -4.42156863 7.18845316 -2 1 C-1.34 0.67 -0.68 0.34 0 0 Z " fill="#99CC78" transform="translate(7,180)"/>
<path d="M0 0 C-1.43881516 3.58930232 -3.10544979 5.00133808 -6.375 7 C-9.64199389 9.07277874 -12.41639819 11.07940665 -15 14 C-15.66 13.67 -16.32 13.34 -17 13 C-4.5 0 -4.5 0 0 0 Z " fill="#E3E6C6" transform="translate(310,28)"/>
<path d="M0 0 C0 0.33 0 0.66 0 1 C-0.61746094 1.15855469 -1.23492187 1.31710938 -1.87109375 1.48046875 C-7.46966927 3.02284648 -12.10028292 4.96844734 -16.9921875 8.109375 C-19.46860436 9.20786341 -20.46963978 8.75007813 -23 8 C-20.48743702 6.64870562 -17.96682058 5.31925796 -15.4375 4 C-14.73302734 3.6184375 -14.02855469 3.236875 -13.30273438 2.84375 C-8.58412695 0.40833971 -5.30807233 -0.44640819 0 0 Z " fill="#C4DAB6" transform="translate(196,0)"/>
<path d="M0 0 C0.66 0 1.32 0 2 0 C-0.56022425 5.54715255 -4.72947253 10.80003689 -10 14 C-10.66 14 -11.32 14 -12 14 C-11.67 13.01 -11.34 12.02 -11 11 C-10.360625 10.855625 -9.72125 10.71125 -9.0625 10.5625 C-8.0415625 10.2840625 -8.0415625 10.2840625 -7 10 C-5.99083967 8.23408113 -5.99083967 8.23408113 -5 6 C-3.44285272 3.85564566 -1.79059266 1.96965193 0 0 Z " fill="#E4E6BD" transform="translate(115,360)"/>
<path d="M0 0 C-0.515625 0.25394531 -1.03125 0.50789063 -1.5625 0.76953125 C-3.49132084 1.74321484 -5.40486201 2.74716128 -7.3125 3.76171875 C-8.54152219 4.4039224 -9.77069251 5.04584264 -11 5.6875 C-11.61617187 6.02072266 -12.23234375 6.35394531 -12.8671875 6.69726562 C-17.45577756 9.06541135 -17.45577756 9.06541135 -20.4375 8.70703125 C-20.953125 8.47371094 -21.46875 8.24039062 -22 8 C-19.730384 6.85170023 -17.45939222 5.70628022 -15.1875 4.5625 C-14.54490234 4.23701172 -13.90230469 3.91152344 -13.24023438 3.57617188 C-8.59378086 1.24090767 -5.21081502 -0.14083284 0 0 Z " fill="#C0D9B1" transform="translate(195,292)"/>
<path d="M0 0 C6.88092215 0.30581876 12.2830754 3.27114088 18 7 C18.33 7.66 18.66 8.32 19 9 C12.2813095 7.00386732 6.19265192 4.2708579 0 1 C0 0.67 0 0.34 0 0 Z " fill="#E2E5B5" transform="translate(346,283)"/>
<path d="M0 0 C1.59282151 3.98693973 0.32658831 6.62819648 -1.1875 10.5 C-1.61417969 11.6240625 -2.04085937 12.748125 -2.48046875 13.90625 C-3.98028656 16.95986364 -5.45729234 18.77853378 -8 21 C-7.50755486 18.43928526 -6.76039663 16.53121079 -5.5625 14.1875 C-3.92274697 10.84240383 -2.99505155 7.58218556 -2 4 C-1.37530495 2.64649406 -0.7283669 1.30065517 0 0 Z " fill="#D2E0C6" transform="translate(114,213)"/>
<path d="M0 0 C5.96661033 1.98887011 10.13000945 8.59766484 13 14 C8.2748097 12.61802665 6.45344494 10.4327538 3.6875 6.4375 C2.99011719 5.44621094 2.29273438 4.45492188 1.57421875 3.43359375 C0 1 0 1 0 0 Z " fill="#E4E6BA" transform="translate(31,358)"/>
<path d="M0 0 C3.98429337 0.56918477 6.61608021 1.8627875 10 4 C10.99 4.33 11.98 4.66 13 5 C13 5.66 13 6.32 13 7 C13.66 7.33 14.32 7.66 15 8 C9.41399909 7.58104993 5.37498445 5.3517184 1 2 C0.67 1.34 0.34 0.68 0 0 Z " fill="#E2E5B3" transform="translate(44,372)"/>
<path d="M0 0 C-6.56342244 3.65875889 -12.54928441 5.93787671 -20 7 C-17.28239723 4.28239723 -14.07012084 3.21488839 -10.5625 1.8125 C-9.88123047 1.52697266 -9.19996094 1.24144531 -8.49804688 0.94726562 C-3.36140958 -1.12046986 -3.36140958 -1.12046986 0 0 Z " fill="#C5DBB7" transform="translate(88,252)"/>
<path d="M0 0 C5.45231953 3.46012585 8.23773042 6.1439885 11 12 C11 12.66 11 13.32 11 14 C10.34 14 9.68 14 9 14 C7.5760131 12.28480923 6.2336784 10.5012088 4.9375 8.6875 C3.86822266 7.20830078 3.86822266 7.20830078 2.77734375 5.69921875 C1 3 1 3 0 0 Z " fill="#B8D7A4" transform="translate(391,164)"/>
<path d="M0 0 C1.19819182 2.88120115 1.03361417 3.91556305 -0.14453125 6.875 C-0.69496094 7.90625 -1.24539063 8.9375 -1.8125 10 C-2.35519531 11.03125 -2.89789063 12.0625 -3.45703125 13.125 C-3.96621094 14.07375 -4.47539062 15.0225 -5 16 C-5.67191424 17.33069661 -6.34105892 18.66283177 -7 20 C-6.70544888 12.34167083 -3.62827658 6.65738822 0 0 Z " fill="#E3E5C1" transform="translate(291,304)"/>
<path d="M0 0 C0.33 0.66 0.66 1.32 1 2 C-0.43163307 3.96286798 -1.86989851 5.92021907 -3.3125 7.875 C-3.71662109 8.43058594 -4.12074219 8.98617187 -4.53710938 9.55859375 C-6.55387431 12.2804066 -8.15051156 14.10034104 -11 16 C-9.55049595 11.64352355 -7.32252888 8.68242711 -4.375 5.1875 C-3.55773437 4.21167969 -2.74046875 3.23585937 -1.8984375 2.23046875 C-1.27195312 1.49441406 -0.64546875 0.75835937 0 0 Z " fill="#ABBFA6" transform="translate(259,232)"/>
<path d="M0 0 C1.77575216 2.66362825 2.98444071 5.21354081 4.19921875 8.16015625 C4.95657544 9.90022943 5.85027847 11.57908858 6.75 13.25 C8 16 8 16 7 19 C0 6.97709924 0 6.97709924 0 0 Z " fill="#C4DBB6" transform="translate(295,215)"/>
<path d="M0 0 C0.66 0.33 1.32 0.66 2 1 C-0.7832093 6.43614072 -3.40783094 10.93265026 -8 15 C-7.56389972 10.05753013 -5.18898789 7.65566905 -2 4 C-0.72147713 1.78412652 -0.72147713 1.78412652 0 0 Z " fill="#E5E6C9" transform="translate(380,92)"/>
<path d="M0 0 C3.67758005 3.28355362 5.81389118 6.62778237 8 11 C7.67 11.66 7.34 12.32 7 13 C4.20222529 11.13481686 3.38697398 10.38787005 1.8125 7.625 C1.46832031 7.03976562 1.12414062 6.45453125 0.76953125 5.8515625 C0 4 0 4 0 0 Z " fill="#E2E6AF" transform="translate(373,299)"/>
<path d="M0 0 C2.81403301 0.28050806 5.62567253 0.57381304 8.4375 0.875 C9.23994141 0.95363281 10.04238281 1.03226562 10.86914062 1.11328125 C12.92170994 1.33845763 14.96293009 1.66222587 17 2 C17.33 2.66 17.66 3.32 18 4 C11.81996755 5.47783385 6.83450766 4.53722843 1 2 C0.67 1.34 0.34 0.68 0 0 Z " fill="#93AF8B" transform="translate(180,260)"/>
<path d="M0 0 C0.5859375 1.84765625 0.5859375 1.84765625 1 4 C0.04504326 5.69287785 -0.9590934 7.35857037 -2 9 C-2.70670728 11.69254991 -2.70670728 11.69254991 -3 14 C-3.66 14 -4.32 14 -5 14 C-5.33 14.99 -5.66 15.98 -6 17 C-5.57664615 10.50857435 -3.08900201 5.66507011 0 0 Z " fill="#B0C3AB" transform="translate(149,171)"/>
<path d="M0 0 C2 1 2 1 2.88671875 3.3984375 C3.15097656 4.38070313 3.41523438 5.36296875 3.6875 6.375 C3.95949219 7.35210937 4.23148438 8.32921875 4.51171875 9.3359375 C5 12 5 12 4 15 C-0.59225513 5.77448747 -0.59225513 5.77448747 0 0 Z " fill="#E3E6AF" transform="translate(26,343)"/>
<path d="M0 0 C0 3.92709135 -1.27900462 4.8189713 -3.875 7.6875 C-4.59429687 8.49574219 -5.31359375 9.30398437 -6.0546875 10.13671875 C-8 12 -8 12 -10 12 C-8.65263662 9.06559801 -7.11433035 6.74926573 -5 4.3125 C-4.484375 3.71050781 -3.96875 3.10851562 -3.4375 2.48828125 C-2 1 -2 1 0 0 Z " fill="#C7DCBC" transform="translate(105,234)"/>
<path d="M0 0 C4.3488459 0.50178991 6.89443878 3.09697538 10 6 C11.375 8.3125 11.375 8.3125 12 10 C9.24491926 8.78776447 6.79078563 7.25548525 4.3125 5.5625 C3.71050781 5.15128906 3.10851562 4.74007812 2.48828125 4.31640625 C1 3 1 3 0 0 Z " fill="#E9EAD3" transform="translate(296,107)"/>
<path d="M0 0 C0.66 0 1.32 0 2 0 C1.45660208 4.56454251 0.20536179 7.9728176 -2 12 C-2.33 12 -2.66 12 -3 12 C-2.14285714 3.42857143 -2.14285714 3.42857143 0 0 Z " fill="#9DB595" transform="translate(263,220)"/>
<path d="M0 0 C1.34192181 4.02576542 0.31842495 7.10534238 -1 11 C-2.625 14 -2.625 14 -4 16 C-4.625 14.125 -4.625 14.125 -5 12 C-4.34 11.34 -3.68 10.68 -3 10 C-2.39688385 8.31238142 -1.86149763 6.59985524 -1.375 4.875 C-1.11460938 3.96492188 -0.85421875 3.05484375 -0.5859375 2.1171875 C-0.39257812 1.41851562 -0.19921875 0.71984375 0 0 Z " fill="#E1E4A9" transform="translate(122,344)"/>
<path d="M0 0 C3.82669043 3.42388092 5.72278474 6.00724943 7 11 C6.34 11 5.68 11 5 11 C3.7109375 9.609375 3.7109375 9.609375 2.375 7.75 C1.92898437 7.14671875 1.48296875 6.5434375 1.0234375 5.921875 C0 4 0 4 0 0 Z " fill="#BED8AC" transform="translate(249,313)"/>
<path d="M0 0 C1.72274487 2.58411731 2.68895522 4.54902656 3.6875 7.4375 C3.95949219 8.19933594 4.23148437 8.96117187 4.51171875 9.74609375 C5.04729142 12.21829721 4.80445309 13.62983284 4 16 C3.566875 14.2984375 3.566875 14.2984375 3.125 12.5625 C2.75375 11.386875 2.3825 10.21125 2 9 C1.34 8.67 0.68 8.34 0 8 C0 5.36 0 2.72 0 0 Z " fill="#C3DAB2" transform="translate(402,178)"/>
<path d="M0 0 C0.99 0.33 1.98 0.66 3 1 C-1.29833361 4.14512215 -4.82069003 5.75696561 -10 7 C-7.19527484 3.70032335 -3.83081791 1.91540896 0 0 Z " fill="#CADEBD" transform="translate(234,103)"/>
<path d="M0 0 C4.50884026 2.31883213 6.93906776 5.06451569 10 9 C9.67 9.66 9.34 10.32 9 11 C7.62437146 9.71034824 6.29233607 8.37310707 5 7 C5 6.34 5 5.68 5 5 C4.360625 4.731875 3.72125 4.46375 3.0625 4.1875 C1 3 1 3 0 0 Z " fill="#B6C7B2" transform="translate(246,155)"/>
<path d="M0 0 C0.66 0 1.32 0 2 0 C2 0.66 2 1.32 2 2 C1.34 2 0.68 2 0 2 C-0.226875 2.639375 -0.45375 3.27875 -0.6875 3.9375 C-2 6 -2 6 -4.625 6.75 C-5.800625 6.87375 -5.800625 6.87375 -7 7 C-4.66666667 4.66666667 -2.33333333 2.33333333 0 0 Z " fill="#B8D7A5" transform="translate(171,9)"/>
<path d="M0 0 C3.48331435 3.01887244 4.79157144 5.56909529 6 10 C5.34 10 4.68 10 4 10 C1.1605948 6.32547562 0 4.73113419 0 0 Z " fill="#A9BDA3" transform="translate(256,166)"/>
<path d="M0 0 C0.66 0.33 1.32 0.66 2 1 C0.76055724 1.86941494 -0.49207059 2.72005457 -1.75 3.5625 C-2.44609375 4.03816406 -3.1421875 4.51382813 -3.859375 5.00390625 C-6 6 -6 6 -8.265625 5.65234375 C-8.83796875 5.43707031 -9.4103125 5.22179687 -10 5 C-8.38007835 4.13624104 -6.75388139 3.28424146 -5.125 2.4375 C-4.22007813 1.96183594 -3.31515625 1.48617187 -2.3828125 0.99609375 C-1.20332031 0.50302734 -1.20332031 0.50302734 0 0 Z " fill="#C1D9B2" transform="translate(39,148)"/>
<path d="M0 0 C3.98381075 2.16264012 6.88983545 4.71211176 10 8 C9.67 8.66 9.34 9.32 9 10 C7.2925002 8.71937515 5.62626404 7.38232443 4 6 C4 5.34 4 4.68 4 4 C2.68 3.34 1.36 2.68 0 2 C0 1.34 0 0.68 0 0 Z " fill="#CCDEC1" transform="translate(239,11)"/>
<path d="M0 0 C1.6415049 3.2830098 0.51888624 6.42545033 0 10 C-0.66 10 -1.32 10 -2 10 C-2.33 10.66 -2.66 11.32 -3 12 C-2.49202991 7.6822542 -1.80317221 3.96697886 0 0 Z " fill="#DDE385" transform="translate(382,82)"/>
<path d="M0 0 C1.25541557 3.76624671 0.37061958 5.37188934 -1 9 C-1.66 9 -2.32 9 -3 9 C-3.33 9.99 -3.66 10.98 -4 12 C-3.5317879 7.22423661 -2.75668002 3.95523655 0 0 Z " fill="#E2E6BE" transform="translate(30,47)"/>
<path d="M0 0 C0.8125 1.6875 0.8125 1.6875 1 4 C-1.4375 6.75 -1.4375 6.75 -4 9 C-3.46930939 5.17902761 -2.50298434 2.93828597 0 0 Z " fill="#B6D6A1" transform="translate(159,313)"/>
<path d="M0 0 C3.14624993 -0.26218749 4.61837017 -0.24754367 7.3125 1.5 C8.1478125 2.2425 8.1478125 2.2425 9 3 C8.67 3.66 8.34 4.32 8 5 C6.02 4.34 4.04 3.68 2 3 C2 2.34 2 1.68 2 1 C1.34 0.67 0.68 0.34 0 0 Z " fill="#AED395" transform="translate(79,150)"/>
<path d="M0 0 C-1.39332574 3.36720387 -2.9789286 4.9859524 -6 7 C-6.66 6.67 -7.32 6.34 -8 6 C-3.38461538 0 -3.38461538 0 0 0 Z " fill="#E0E49C" transform="translate(310,28)"/>
<path d="M0 0 C4.35535069 1.16142685 6.64619703 2.07699505 9 6 C7.35 5.67 5.7 5.34 4 5 C4 4.34 4 3.68 4 3 C2.68 2.34 1.36 1.68 0 1 C0 0.67 0 0.34 0 0 Z " fill="#C0D9B1" transform="translate(24,247)"/>
<path d="M0 0 C0.33 0.66 0.66 1.32 1 2 C0.00390625 3.9453125 0.00390625 3.9453125 -1.4375 6.125 C-1.91058594 6.84945312 -2.38367188 7.57390625 -2.87109375 8.3203125 C-3.24363281 8.87460938 -3.61617187 9.42890625 -4 10 C-4.33 9.01 -4.66 8.02 -5 7 C-3.58511552 4.23760649 -2.19636905 2.19636905 0 0 Z " fill="#CCDEC0" transform="translate(255,81)"/>
<path d="M0 0 C6.625 -0.25 6.625 -0.25 10 2 C9.67 2.66 9.34 3.32 9 4 C6.03 3.01 3.06 2.02 0 1 C0 0.67 0 0.34 0 0 Z " fill="#C2D9B5" transform="translate(184,401)"/>
<path d="M0 0 C1.46726798 3.81489674 0.43336419 6.29011622 -1 10 C-1.66 10 -2.32 10 -3 10 C-2.49287967 6.28111761 -1.88391785 3.26545761 0 0 Z " fill="#CBDDBD" transform="translate(114,213)"/>
<path d="M0 0 C-0.33 0.99 -0.66 1.98 -1 3 C-3.31 3.33 -5.62 3.66 -8 4 C-5.57415142 1.34311822 -3.76063134 0 0 0 Z " fill="#E1E4AE" transform="translate(99,116)"/>
<path d="M0 0 C2.9719385 1.12451727 5.33440687 2.22293791 8 4 C8 4.66 8 5.32 8 6 C4.64532525 4.82133049 2.28780716 3.76945078 0 1 C0 0.67 0 0.34 0 0 Z " fill="#E0E4AB" transform="translate(46,113)"/>
<path d="M0 0 C0.66 0.33 1.32 0.66 2 1 C1.360625 1.268125 0.72125 1.53625 0.0625 1.8125 C-2.33131686 2.88667752 -2.33131686 2.88667752 -3 6 C-4.32 5.67 -5.64 5.34 -7 5 C-4.69 3.35 -2.38 1.7 0 0 Z " fill="#DFE3A6" transform="translate(50,287)"/>
</svg>
